<svg id="Layer_1" data-name="Layer 1" xmlns="http://www.w3.org/2000/svg" viewBox="0 0 610 307.1"><defs><style>.cls-1{fill:#bcbec0;}.cls-2{fill:#fff;}</style></defs><path class="cls-1" d="M202.9,141.93c-2.5-12.7-10-33.1-31.7-41.9-3.1-7.8-10.5-14.9-19.6-18.2-14.4-5.1-24.8-2.3-28.9-.6-4.2-1.6-14.6-4.5-29,.6C84.4,85.13,77.1,92.23,74,100c-21.8,8.8-29.2,29.2-31.7,41.9-6.6,4.8-9.7,13.7-9.7,22.2,0,9,5.1,19.3,12.8,27,.4,4.3,2.3,16,10.3,23.3a20,20,0,0,0,3.7,2.8c2.8,7.1,14.6,32.7,39.5,32.7,12.5,0,19.8-6.1,23.7-12.8,4,6.7,11.3,12.8,23.7,12.8,24.9,0,36.7-25.6,39.5-32.7a20,20,0,0,0,3.7-2.8c8-7.3,9.8-19.1,10.3-23.3,7.7-7.7,12.8-18,12.8-27-.1-8.4-3.1-17.4-9.7-22.2"/><path class="cls-2" d="M127.4,120.23a4.9,4.9,0,1,1-4.9-4.9,4.91,4.91,0,0,1,4.9,4.9h0"/><path class="cls-2" d="M168.4,142.43a4.9,4.9,0,1,1-4.9-4.9,4.78,4.78,0,0,1,4.9,4.9h0"/><path class="cls-2" d="M180.2,171.33a4.9,4.9,0,1,1-4.9-4.9,4.91,4.91,0,0,1,4.9,4.9h0"/><path class="cls-2" d="M86.6,142.43a4.9,4.9,0,1,1-4.9-4.9,4.78,4.78,0,0,1,4.9,4.9h0"/><path class="cls-2" d="M74.7,171.33a4.9,4.9,0,1,1-4.9-4.9,4.91,4.91,0,0,1,4.9,4.9h0"/><path class="cls-2" d="M109.8,227.83a4.9,4.9,0,1,1-4.9-4.9,4.91,4.91,0,0,1,4.9,4.9h0"/><path class="cls-2" d="M145.2,227.83a4.9,4.9,0,1,1-4.9-4.9,4.91,4.91,0,0,1,4.9,4.9"/><path class="cls-2" d="M212.6,164.13c0-8.5-3.1-17.4-9.7-22.2-2.5-12.7-10-33.1-31.7-41.9-3.1-7.8-10.5-14.9-19.6-18.2-14.4-5.1-24.8-2.3-28.9-.6-4.2-1.6-14.6-4.5-29,.6C84.4,85.13,77.1,92.23,74,100c-21.8,8.8-29.2,29.2-31.7,41.9-6.6,4.8-9.7,13.7-9.7,22.2,0,9,5.1,19.3,12.8,27,.4,4.3,2.3,16,10.3,23.3a20,20,0,0,0,3.7,2.8c2.8,7.1,14.6,32.7,39.5,32.7,12.5,0,19.8-6.1,23.7-12.8,4,6.7,11.3,12.8,23.7,12.8,24.9,0,36.7-25.6,39.5-32.7a20,20,0,0,0,3.7-2.8c8-7.3,9.8-19.1,10.3-23.3,7.6-7.6,12.7-18,12.8-27m-86.5-43.9a3.5,3.5,0,1,1-3.5-3.5,3.42,3.42,0,0,1,3.5,3.5h0m-29.9-31c11.1-3.9,19-2.3,22.5-1.1v25.7a7.48,7.48,0,1,0,10.3,2.4,6.89,6.89,0,0,0-2.4-2.4V88.13c3.6-1.2,11.5-2.8,22.4,1.1,9.2,3.3,16.2,11.7,16,19.1-.2,6.4-5.9,11.5-16.1,14.4l-2.9.8v3c0,9.9-3,26.4-23.4,26.5s-23.4-16.6-23.4-26.5v-3l-2.8-.8c-10.2-2.9-15.9-8-16.1-14.4-.3-7.4,6.7-15.8,15.9-19.1m2.7,152.9c-15.2,0-24.7-13-29.3-21.7,1.2.1,2.5.1,3.7.1,3.6-.2,7-1.7,10.3-3.1,3.8-1.7,7.4-3.3,10-2.2,2,.9,3.9,3.6,5.6,7.9a7.46,7.46,0,1,0,10.5-1,7.09,7.09,0,0,0-3-1.5c-2.5-6.7-5.8-10.9-10-12.6-5.7-2.4-11.3.1-16.2,2.3-2.8,1.2-5.4,2.4-7.4,2.5-11,.5-15.9-7.6-18.1-14.4a35.94,35.94,0,0,0,17.5,4.8,36.93,36.93,0,0,0,18.8-5.4c4.4-2.6,9.7-8.6,11.1-17.8,1.3-8,0-20.7-13.3-36.2a6.6,6.6,0,0,0,.1-1.4,7.45,7.45,0,1,0-7.5,7.4,6.93,6.93,0,0,0,2-.3c10.8,12.9,12,22.9,10.9,29.1s-4.4,10.6-7.4,12.3c-12,7-22.3,4.1-28.7.4-11.3-6.5-18.1-18.9-18.1-27.3,0-.7.2-17.9,13.2-17.9,4.4,0,7.6,1.2,9.7,3.7,4.1,4.9,3.1,13.3,2.9,14.9a7.48,7.48,0,1,0,10.2,2.8,7.82,7.82,0,0,0-2.3-2.5c.4-3.6.9-13.4-4.7-20.2-3.6-4.3-8.9-6.5-15.7-6.5a19.27,19.27,0,0,0-2.4.1c2.7-9.8,8.6-22.1,21.3-29.1.4,5.6,3.7,14.7,19,20,.9,14.7,8.4,29.4,27.3,31.2v64.4h0v.1c-.7,3.2-3.5,17.1-20,17.1m9.5-14.3a3.5,3.5,0,1,1-3.5-3.5,3.54,3.54,0,0,1,3.5,3.5h0m-26.7-81.9a3.5,3.5,0,1,1,3.5-3.5h0a3.54,3.54,0,0,1-3.5,3.5m-11.9,21.9a3.5,3.5,0,1,1-3.5,3.5h0a3.42,3.42,0,0,1,3.5-3.5m114.4,40.9c-3.1,2.9-7.1,4.2-11.9,4-2.1-.1-4.7-1.2-7.4-2.5-4.9-2.2-10.5-4.7-16.2-2.3-4.2,1.8-7.5,5.9-10,12.6a7.46,7.46,0,1,0,9,5.5,8.92,8.92,0,0,0-1.5-3.1c1.7-4.3,3.6-7,5.6-7.9,2.6-1.1,6.2.5,10,2.2,3.3,1.5,6.7,3,10.3,3.1,1.2,0,2.5,0,3.7-.1-4.6,8.6-14.1,21.7-29.3,21.7-16.5,0-19.3-13.6-19.8-17.1v-64.4c18.8-1.8,26.3-16.5,27.2-31.2,15.3-5.2,18.5-14.3,19-20,12.7,7,18.6,19.4,21.3,29.1a20.08,20.08,0,0,0-2.5-.1c-6.8,0-12.1,2.2-15.7,6.5-5.6,6.8-5.1,16.6-4.7,20.2a7.42,7.42,0,1,0,10.3,2,6.91,6.91,0,0,0-2.5-2.3c-.2-1.5-1.2-10,2.9-14.9,2.1-2.5,5.3-3.7,9.7-3.7,13,0,13.2,17.1,13.2,17.9,0,8.3-6.8,20.8-18.1,27.3-6.5,3.7-16.7,6.6-28.7-.4-3-1.7-6.4-6.2-7.4-12.3s.1-16.2,10.9-29.1a6.45,6.45,0,0,0,2,.3,7.4,7.4,0,1,0-7.4-7.4,6.6,6.6,0,0,0,.1,1.4c-13.3,15.5-14.6,28.2-13.3,36.2,1.5,9.2,6.8,15.2,11.1,17.8a37.93,37.93,0,0,0,18.8,5.4,35.46,35.46,0,0,0,17.4-4.7c-1.3,3.7-3.2,7.6-6.1,10.3m-40.5,19.2a3.5,3.5,0,1,1-3.5-3.5,3.48,3.48,0,0,1,3.5,3.5h0m35.2-56.6a3.5,3.5,0,1,1-3.5-3.5h0a3.61,3.61,0,0,1,3.5,3.5m-19-28.9a3.5,3.5,0,1,1,3.5,3.5,3.54,3.54,0,0,1-3.5-3.5h0"/><path class="cls-2" d="M237.5,210.63a1.79,1.79,0,0,1-.8-2.4h0l7.2-14a1.73,1.73,0,0,1,2.2-.9,2,2,0,0,1,.9.9l7.1,14c1,2-2,3.5-2.9,1.6l-1.2-2.3h-9.2l-1.1,2.2A1.79,1.79,0,0,1,237.5,210.63Zm8-12.4-3.1,6.2h5.9Z"/><path class="cls-2" d="M257,209.13v-14.2a1.45,1.45,0,0,1,1.4-1.5h6.8c6.3,0,7.6,8.5,2.3,10.6l3.3,4a1.66,1.66,0,1,1-2.8,1.8h0l-3.8-5.3h-3.9V209a1.65,1.65,0,0,1-3.3.1Zm8.1-7.5c3.2,0,3.4-5.2,0-5.2h-4.8v5.2Z"/><path class="cls-2" d="M279.1,196.53h-4.4a1.6,1.6,0,1,1-.2-3.2h12.1a1.6,1.6,0,0,1,.2,3.2h-4.4v12.6a1.7,1.7,0,0,1-3.4,0Z"/><path class="cls-2" d="M291.4,194.83a1.7,1.7,0,1,1,3.4,0h0v14.3a1.7,1.7,0,1,1-3.4,0Z"/><path class="cls-2" d="M302.3,196.63v4h6.4a1.94,1.94,0,0,1,1.8,1.8,1.75,1.75,0,0,1-1.8,1.5h-6.4v5.2a1.45,1.45,0,0,1-1.4,1.5h-.1a1.59,1.59,0,0,1-1.8-1.4v-14.3a1.58,1.58,0,0,1,1.6-1.6h9a1.55,1.55,0,0,1,1.7,1.3v.2a1.75,1.75,0,0,1-1.7,1.7h-7.3Z"/><path class="cls-2" d="M314.9,194.83a1.69,1.69,0,0,1,1.7-1.7,1.63,1.63,0,0,1,1.7,1.7h0v14.3a1.69,1.69,0,0,1-1.7,1.7,1.63,1.63,0,0,1-1.7-1.7Z"/><path class="cls-2" d="M321.9,201.93c0-4.8,3-8.9,8.8-8.9a8.46,8.46,0,0,1,5.7,2.2,1.64,1.64,0,0,1-2,2.6c-.1-.1-.2-.1-.2-.2a4.27,4.27,0,0,0-3.5-1.4,5.38,5.38,0,0,0-5.7,5.1v.7c0,3.1,1.8,5.9,5.7,5.9a5.38,5.38,0,0,0,3.9-1.7,1.64,1.64,0,1,1,2,2.6,8.48,8.48,0,0,1-5.9,2C324.6,210.83,321.9,206.73,321.9,201.93Z"/><path class="cls-2" d="M340.9,194.83a1.7,1.7,0,1,1,3.4,0h0v14.3a1.7,1.7,0,1,1-3.4,0Z"/><path class="cls-2" d="M348.1,210.63a1.79,1.79,0,0,1-.8-2.4h0l7.2-14a1.73,1.73,0,0,1,2.2-.9,2,2,0,0,1,.9.9l7,14c1,2-2,3.5-2.9,1.6l-1.1-2.2h-9.2l-1.1,2.2A1.85,1.85,0,0,1,348.1,210.63Zm7.9-12.4-3.1,6.2h5.9Z"/><path class="cls-2" d="M367.5,194.83a1.5,1.5,0,0,1,1.6-1.5,1.54,1.54,0,0,1,1.5,1.5v12.5h6.8a1.67,1.67,0,1,1,.5,3.3h-8.8a1.62,1.62,0,0,1-1.6-1.4v-14.4Z"/><path class="cls-2" d="M390.5,194.83a1.69,1.69,0,0,1,1.7-1.7,1.63,1.63,0,0,1,1.7,1.7h0v14.3a1.69,1.69,0,0,1-1.7,1.7,1.63,1.63,0,0,1-1.7-1.7Z"/><path class="cls-2" d="M398.1,195.13c0-.9.2-1.8,1.5-1.8.9,0,1.1.2,1.8.9l8.3,10.3v-9.7a1.73,1.73,0,0,1,1.6-1.7,2,2,0,0,1,1.8,1.7v14.1a1.71,1.71,0,0,1-1.3,1.7,2.52,2.52,0,0,1-2-.9l-8.2-10.4v9.6a1.5,1.5,0,0,1-1.4,1.7H400a1.67,1.67,0,0,1-1.7-1.6v-.1Z"/><path class="cls-2" d="M421.8,196.53h-4.4a1.6,1.6,0,0,1-.2-3.2h12.1a1.6,1.6,0,1,1,.2,3.2h-4.4v12.6a1.7,1.7,0,0,1-3.4,0Z"/><path class="cls-2" d="M433.9,209.13v-14.2a1.62,1.62,0,0,1,1.5-1.6h9a1.66,1.66,0,0,1,.3,3.3h-7.5v3.7h6.3a1.66,1.66,0,0,1,.3,3.3h-6.6v3.7h7.6a1.66,1.66,0,0,1,.3,3.3h-9.7a1.54,1.54,0,0,1-1.5-1.5Z"/><path class="cls-2" d="M449.9,194.83a1.5,1.5,0,0,1,1.6-1.5,1.54,1.54,0,0,1,1.5,1.5v12.5h6.8a1.67,1.67,0,0,1,.5,3.3h-8.8a1.62,1.62,0,0,1-1.6-1.4v-14.4Z"/><path class="cls-2" d="M464.8,194.83a1.5,1.5,0,0,1,1.6-1.5h0a1.54,1.54,0,0,1,1.5,1.5v12.5h6.8a1.67,1.67,0,1,1,.5,3.3h-8.8a1.62,1.62,0,0,1-1.6-1.4v-14.4Z"/><path class="cls-2" d="M479.9,194.83a1.7,1.7,0,1,1,3.4,0h0v14.3a1.7,1.7,0,1,1-3.4,0Z"/><path class="cls-2" d="M502.2,208.73a9.61,9.61,0,0,1-6.1,2.1c-5.2,0-8.9-3-8.9-8.9a8.92,8.92,0,0,1,8.9-8.9h.3a8.46,8.46,0,0,1,5.7,2.2,1.69,1.69,0,0,1,0,2.3,1.67,1.67,0,0,1-2.2.1,4.84,4.84,0,0,0-3.6-1.6,5.91,5.91,0,0,0-5.9,5.9,5.52,5.52,0,0,0,5.2,5.9h.5a7,7,0,0,0,3.7-1.1v-3.1h-3.7a1.56,1.56,0,1,1-.3-3.1h5.3a1.82,1.82,0,0,1,1.8,1.5v5.3A2.1,2.1,0,0,1,502.2,208.73Z"/><path class="cls-2" d="M507.1,209.13v-14.2a1.62,1.62,0,0,1,1.5-1.6h9a1.66,1.66,0,1,1,.3,3.3h-7.5v3.7h6.3a1.66,1.66,0,1,1,.3,3.3h-6.6v3.7H518a1.66,1.66,0,1,1,.3,3.3h-9.7a1.42,1.42,0,0,1-1.5-1.5Z"/><path class="cls-2" d="M523.1,195.13c0-.9.2-1.8,1.5-1.8.9,0,1.1.2,1.8.9l8.3,10.3v-9.7a1.73,1.73,0,0,1,1.6-1.7,2,2,0,0,1,1.8,1.7v14.1a1.71,1.71,0,0,1-1.3,1.7,2.52,2.52,0,0,1-2-.9l-8.2-10.4v9.6a1.5,1.5,0,0,1-1.4,1.7H525a1.67,1.67,0,0,1-1.7-1.6v-.1Z"/><path class="cls-2" d="M541.5,201.93c0-4.8,3-8.9,8.8-8.9a8.46,8.46,0,0,1,5.7,2.2,1.64,1.64,0,1,1-2,2.6c-.1-.1-.2-.1-.2-.2a4.27,4.27,0,0,0-3.5-1.4,5.38,5.38,0,0,0-5.7,5.1v.7c0,3.1,1.8,5.9,5.7,5.9a5.7,5.7,0,0,0,3.9-1.6,1.64,1.64,0,0,1,2,2.6,8.48,8.48,0,0,1-5.9,2C544.2,210.83,541.5,206.73,541.5,201.93Z"/><path class="cls-2" d="M560.3,209.13v-14.2a1.62,1.62,0,0,1,1.5-1.6h9a1.66,1.66,0,1,1,.3,3.3h-7.5v3.7H570a1.66,1.66,0,1,1,.3,3.3h-6.6v3.7h7.6a1.66,1.66,0,1,1,.3,3.3h-9.7a1.55,1.55,0,0,1-1.6-1.4Z"/><path class="cls-2" d="M281.9,231.93c0-4.8,3-8.9,8.8-8.9a8.46,8.46,0,0,1,5.7,2.2,1.63,1.63,0,0,1-2.2,2.4,4.27,4.27,0,0,0-3.5-1.4,5.38,5.38,0,0,0-5.7,5.1v.7c0,3.1,1.8,5.9,5.7,5.9a5.7,5.7,0,0,0,3.9-1.6,1.64,1.64,0,0,1,2,2.6,8.48,8.48,0,0,1-5.9,2C284.6,240.83,281.9,236.73,281.9,231.93Z"/><path class="cls-2" d="M300.7,239.13v-14.2a1.62,1.62,0,0,1,1.5-1.6h9a1.66,1.66,0,0,1,.3,3.3H304v3.7h6.3a1.66,1.66,0,0,1,.3,3.3H304v3.7h7.6a1.66,1.66,0,1,1,.3,3.3h-9.7a1.54,1.54,0,0,1-1.5-1.5Z"/><path class="cls-2" d="M316.8,225.13c0-.9.2-1.8,1.5-1.8.9,0,1.1.2,1.8.9l8.3,10.3v-9.7a1.73,1.73,0,0,1,1.6-1.7,2,2,0,0,1,1.8,1.7v14.1a1.71,1.71,0,0,1-1.3,1.7,2.52,2.52,0,0,1-2-.9l-8.3-10.5v9.6a1.5,1.5,0,0,1-1.4,1.7h-.2a1.67,1.67,0,0,1-1.7-1.6v-.1Z"/><path class="cls-2" d="M340.5,226.53h-4.4a1.6,1.6,0,0,1,0-3.2h11.8a1.6,1.6,0,1,1,0,3.2h-4.1v12.6a1.69,1.69,0,0,1-1.7,1.7,1.63,1.63,0,0,1-1.7-1.7Z"/><path class="cls-2" d="M352.5,239.13v-14.2a1.62,1.62,0,0,1,1.5-1.6h9a1.66,1.66,0,0,1,.3,3.3h-7.5v3.7h6.3a1.66,1.66,0,1,1,.3,3.3h-6.6v3.7h7.7a1.66,1.66,0,0,1,.3,3.3h-9.7a1.55,1.55,0,0,1-1.6-1.4Z"/><path class="cls-2" d="M368.5,239v-14.2a1.47,1.47,0,0,1,1.5-1.5h6.7c6.3,0,7.6,8.5,2.3,10.6l3.3,4a1.66,1.66,0,0,1-2.8,1.8l-3.8-5.4h-3.9v4.5a1.67,1.67,0,0,1-1.6,1.7C369.3,240.73,368.6,240,368.5,239Zm8.2-7.4c3.2,0,3.4-5.2,0-5.2h-4.8v5.3Z"/><path class="cls-2" d="M394.1,224.83a1.7,1.7,0,1,1,3.4,0v14.3a1.7,1.7,0,0,1-3.4,0Z"/><path class="cls-2" d="M401.8,225.13c0-.9.2-1.8,1.5-1.8.9,0,1.1.2,1.8.9l8.3,10.3v-9.7a1.73,1.73,0,0,1,1.6-1.7,2,2,0,0,1,1.8,1.7v14.1a1.71,1.71,0,0,1-1.3,1.7,2.52,2.52,0,0,1-2-.9l-8.3-10.5v9.6a1.57,1.57,0,0,1-1.4,1.7h-.2a1.67,1.67,0,0,1-1.7-1.6v-13.8Z"/><path class="cls-2" d="M420.7,239.13v-14.2a1.73,1.73,0,0,1,1.7-1.6h5.8c11.4,0,11.2,17.3.2,17.3h-5.9a1.66,1.66,0,0,1-1.8-1.3Zm3.4-1.5h4.2c6.7,0,7-11.2,0-11.2h-4.2Z"/><path class="cls-2" d="M449,240.93a8.73,8.73,0,0,1-9.4-8v-1c0-6.1,4.8-9.2,9.4-9.2,4.4.2,8.9,3.2,8.9,9.2a8.79,8.79,0,0,1-8.5,9Zm-.3-14.9a5.9,5.9,0,1,0,5.9,5.9,5.7,5.7,0,0,0-5.5-5.9C449,225.93,448.9,225.93,448.7,226Z"/><path class="cls-2" d="M461.7,225.13c0-.9.2-1.8,1.5-1.8.9,0,1.1.2,1.8.9l8.3,10.3v-9.7a1.73,1.73,0,0,1,1.6-1.7,2,2,0,0,1,1.8,1.7v14.1a1.71,1.71,0,0,1-1.3,1.7,2.52,2.52,0,0,1-2-.9l-8.3-10.5v9.6a1.5,1.5,0,0,1-1.4,1.7h-.2a1.67,1.67,0,0,1-1.7-1.6v-13.8Z"/><path class="cls-2" d="M480.6,239.13v-14.2a1.62,1.62,0,0,1,1.5-1.6h9a1.66,1.66,0,1,1,.3,3.3h-7.5v3.7h6.3a1.66,1.66,0,0,1,.3,3.3h-6.6v3.7h7.6a1.66,1.66,0,0,1,.3,3.3h-9.7a1.54,1.54,0,0,1-1.5-1.5Z"/><path class="cls-2" d="M496.3,227.13c.6-4.8,7.9-5.7,11.3-3.1a1.46,1.46,0,1,1-1.5,2.5l-.1-.1c-1.8-1.2-6-1.7-6.6.9-.7,4.1,10.2,1.8,10,8.4-.2,6.3-9.4,6.5-12.8,3.6a1.87,1.87,0,0,1-.4-2.4,1.46,1.46,0,0,1,2.1-.3l.1.1c2,1.4,7.3,2.5,7.7-1.1C505.9,232,495.5,234.23,496.3,227.13Z"/><path class="cls-2" d="M513.2,224.83a1.69,1.69,0,0,1,1.7-1.7,1.63,1.63,0,0,1,1.7,1.7v14.3a1.69,1.69,0,0,1-1.7,1.7,1.63,1.63,0,0,1-1.7-1.7Z"/><path class="cls-2" d="M520.4,240.63a1.79,1.79,0,0,1-.8-2.4h0l7.2-14a1.73,1.73,0,0,1,2.2-.9,2,2,0,0,1,.9.9l7.1,14c1,2-2,3.5-2.9,1.6l-1.1-2.2h-9.2l-1.1,2.2A2.2,2.2,0,0,1,520.4,240.63Zm7.9-12.5-3,6.2h5.9Z"/><path class="cls-2" d="M327.3,171c-1-.2-1.9-.5-2.9-.8a8,8,0,0,1-2.7-1.8l-12.6-19.3H260l-13.1,20c-4.5,2.6-8,2.4-10.6-.8a6.86,6.86,0,0,1-1.3-2.9,8.74,8.74,0,0,1,.1-3.6l14.5-23.1c1.1-3.1,3.3-4.3,6.7-3.7l43.3-.1-21.2-31.8c-1.6-4.1-1-7.3,1.9-9.6,3-2.6,6.2-2.3,9.7.7l43.6,65.3a8.15,8.15,0,0,1,.1,8,11.55,11.55,0,0,1-3.6,3c-.9.1-1.8.3-2.8.5"/><path class="cls-2" d="M377.9,170.43c-3.6-.1-5.9-1.9-7.1-5.6v-41.4c.8-2.6,2-4.2,3.4-4.8a8.89,8.89,0,0,1,3.1-.8h2.1c3.6,1.1,5.5,3,5.8,5.9v41.2a7.31,7.31,0,0,1-7.3,5.5"/><path class="cls-2" d="M445.8,170.43a37.48,37.48,0,0,1-8.8-2,19.17,19.17,0,0,1-7.6-4.9,22,22,0,0,1-3.8-5.9,32.19,32.19,0,0,1-2-6.7v-36.4a36.61,36.61,0,0,1,2.7-9.1,28.42,28.42,0,0,1,5.4-7.9,20.65,20.65,0,0,1,6.6-4.2,24.55,24.55,0,0,1,7.6-1.6h59.3a28.46,28.46,0,0,1,8.1,2.1A18,18,0,0,1,523.7,106a25.72,25.72,0,0,1,.6,7.8,11.88,11.88,0,0,1-1.8,2.9,8.64,8.64,0,0,1-2.9,2.1l-4.2.3-3.5-2.1a7.73,7.73,0,0,1-2.2-5.4,3.89,3.89,0,0,0-1.2-3.7l-3.2-1.5H446a11.22,11.22,0,0,0-2.6.8,7.25,7.25,0,0,0-2.5,1.8,15.47,15.47,0,0,0-1.9,3.6,16.37,16.37,0,0,0-1,3.8v31.7a15.29,15.29,0,0,0,.7,2.9,12.27,12.27,0,0,0,1.2,2.6,21.48,21.48,0,0,0,2.6,1.4,7.73,7.73,0,0,0,2.7.8h60.1l2.9-1.7a8.65,8.65,0,0,0,.6-3.9,8.69,8.69,0,0,1,2.2-5.3,13.69,13.69,0,0,1,3.2-1.6,7.73,7.73,0,0,1,4-.1,19.1,19.1,0,0,1,2.7,1.6,7.55,7.55,0,0,1,2.1,2.6l.5,4.7a21.79,21.79,0,0,1-1.9,7.9,18.62,18.62,0,0,1-5.2,6.6,21.09,21.09,0,0,1-5.2,2.6,29.41,29.41,0,0,1-5.9,1.2Z"/><path class="cls-2" d="M569.6,170.43c-1-.3-1.9-.7-2.9-1.1a7.84,7.84,0,0,1-2.6-2.2L563,165V97.23l1.7-3.1a6.77,6.77,0,0,1,2.9-1.8,10.59,10.59,0,0,1,3.1-.5,13.09,13.09,0,0,1,2.8.9,6.65,6.65,0,0,1,2.5,2.2l1.4,2.7v66.9c-1,3.6-3.7,5.6-7.8,5.9"/><path class="cls-2" d="M385.1,99a7.2,7.2,0,1,1-7.2-7.2,7.17,7.17,0,0,1,7.2,7.2h0"/></svg>